<svg xmlns="http://www.w3.org/2000/svg" viewBox="0 0 120 96" stroke-linejoin="round" stroke-linecap="round">
  <ellipse cx="58" cy="80" rx="28" ry="8" fill="#5c5144" opacity=".12"/>
  <ellipse cx="54" cy="76" rx="26" ry="6" fill="#e7dcc8" stroke="#8a7d68" stroke-width=".8"/>
  <path d="M34 30h40l-7 40H41z" fill="#f7f3ea" stroke="#5e6758" stroke-width="1.2"/>
  <path d="M40 48h28l-4 18H44z" fill="#e4c56a"/>
  <path d="M42 52h22l-1 4H43z" fill="#f6e6b4" opacity=".7"/>
  <path d="M48 36c2 16 1 24 0 28" fill="none" stroke="#fff" stroke-width="1.4" opacity=".45"/>
  <rect x="42" y="20" width="24" height="8" rx="2" fill="#d5e4de" stroke="#5e6758" stroke-width=".8"/>
  <ellipse cx="92" cy="36" rx="14" ry="14" fill="#e6c25e" stroke="#3a4238" stroke-width="1"/>
  <ellipse cx="92" cy="36" rx="9" ry="9" fill="#f7efd0" stroke="#d7b45a" stroke-width=".5"/>
  <path d="M92 24v24M80 36h24M84 28l16 16M84 44l16-16" stroke="#f3e2b0" stroke-width=".9"/>
  <ellipse cx="98" cy="32" rx="4" ry="3" fill="#fff" opacity=".35"/>
</svg>
